<svg width="20" height="20" viewBox="0 0 20 20" fill="none" xmlns="http://www.w3.org/2000/svg">
<path d="M8.94602 14.5485C8.65652 13.6585 7.93202 12.989 7.04202 12.7575C6.54702 11.9825 5.68602 11.5 4.75002 11.5C3.81402 11.5 2.95302 11.9825 2.45802 12.7575C1.56802 12.989 0.843523 13.6585 0.554023 14.5485C0.265023 15.4385 0.457523 16.4065 1.04152 17.117C0.986523 18.0355 1.39952 18.9315 2.15702 19.4815C2.91502 20.0325 3.89452 20.1465 4.75052 19.8115C5.07102 19.937 5.40902 19.9995 5.74652 19.9995C6.30902 19.9995 6.87002 19.8255 7.34352 19.4815C8.10152 18.931 8.51402 18.035 8.45902 17.117C9.04252 16.406 9.23502 15.4385 8.94602 14.5485ZM4.75002 16.468C4.34452 16.468 4.01602 16.1395 4.01602 15.734C4.01602 15.3285 4.34452 15 4.75002 15C5.15552 15 5.48402 15.3285 5.48402 15.734C5.48402 16.1395 5.15552 16.468 4.75002 16.468ZM20 0.7775C19.999 0.3645 19.6075 0 19.194 0C14.3865 0 11.639 2.454 11.025 7.235L9.17952 10.287C8.79152 10.9985 9.03552 11.8645 9.73452 12.259C9.76552 12.276 9.79702 12.291 9.82952 12.304L11 12.7615V14.75C11 16.542 12.458 18 14.25 18H15V19.25C15 19.664 15.3355 20 15.75 20H19.25C19.449 20 19.6405 19.921 19.781 19.7795C19.9215 19.6385 20 19.4475 20 19.248V0.7775Z" fill="#212121"/>
</svg>
